<svg width="16" height="16" viewBox="0 0 16 16" fill="none" xmlns="http://www.w3.org/2000/svg">
<path d="M8.00001 4.66667C8.13262 4.66667 8.2598 4.71935 8.35356 4.81312C8.44733 4.90689 8.50001 5.03406 8.50001 5.16667V8.16667C8.50001 8.29928 8.44733 8.42646 8.35356 8.52022C8.2598 8.61399 8.13262 8.66667 8.00001 8.66667C7.8674 8.66667 7.74023 8.61399 7.64646 8.52022C7.55269 8.42646 7.50001 8.29928 7.50001 8.16667V5.16667C7.50001 5.03406 7.55269 4.90689 7.64646 4.81312C7.74023 4.71935 7.8674 4.66667 8.00001 4.66667V4.66667ZM8.66668 10.6667C8.66668 10.8435 8.59644 11.0131 8.47141 11.1381C8.34639 11.2631 8.17682 11.3333 8.00001 11.3333C7.8232 11.3333 7.65363 11.2631 7.52861 11.1381C7.40358 11.0131 7.33334 10.8435 7.33334 10.6667C7.33334 10.4899 7.40358 10.3203 7.52861 10.1953C7.65363 10.0702 7.8232 10 8.00001 10C8.17682 10 8.34639 10.0702 8.47141 10.1953C8.59644 10.3203 8.66668 10.4899 8.66668 10.6667V10.6667Z" fill="#211D40"/>
<path fill-rule="evenodd" clip-rule="evenodd" d="M7.99999 0.666672C3.94999 0.666672 0.666656 3.95001 0.666656 8C0.666656 12.05 3.94999 15.3333 7.99999 15.3333C12.05 15.3333 15.3333 12.05 15.3333 8C15.3333 3.95001 12.05 0.666672 7.99999 0.666672ZM1.66666 8C1.66666 6.3203 2.33392 4.70939 3.52165 3.52166C4.70938 2.33393 6.32028 1.66667 7.99999 1.66667C9.67969 1.66667 11.2906 2.33393 12.4783 3.52166C13.6661 4.70939 14.3333 6.3203 14.3333 8C14.3333 9.67971 13.6661 11.2906 12.4783 12.4783C11.2906 13.6661 9.67969 14.3333 7.99999 14.3333C6.32028 14.3333 4.70938 13.6661 3.52165 12.4783C2.33392 11.2906 1.66666 9.67971 1.66666 8V8Z" fill="#211D40"/>
</svg>
