<svg width="16" height="16" viewBox="0 0 16 16" fill="none" xmlns="http://www.w3.org/2000/svg">
<path d="M14.1891 5.51719L10.2219 4.94063L8.44844 1.34532C8.4 1.24688 8.32031 1.16719 8.22187 1.11875C7.975 0.996878 7.675 1.09844 7.55156 1.34532L5.77812 4.94063L1.81094 5.51719C1.70156 5.53282 1.60156 5.58438 1.525 5.6625C1.43244 5.75764 1.38143 5.88563 1.38319 6.01835C1.38495 6.15107 1.43933 6.27767 1.53437 6.37032L4.40469 9.16875L3.72656 13.1203C3.71066 13.2122 3.72083 13.3068 3.75592 13.3932C3.79102 13.4796 3.84963 13.5545 3.92511 13.6093C4.00059 13.6642 4.08992 13.6967 4.18297 13.7034C4.27602 13.71 4.36907 13.6904 4.45156 13.6469L8 11.7813L11.5484 13.6469C11.6453 13.6984 11.7578 13.7156 11.8656 13.6969C12.1375 13.65 12.3203 13.3922 12.2734 13.1203L11.5953 9.16875L14.4656 6.37032C14.5437 6.29375 14.5953 6.19375 14.6109 6.08438C14.6531 5.81094 14.4625 5.55782 14.1891 5.51719V5.51719ZM10.3875 8.775L10.9516 12.0609L8 10.5109L5.04844 12.0625L5.6125 8.77657L3.225 6.44844L6.525 5.96875L8 2.97969L9.475 5.96875L12.775 6.44844L10.3875 8.775Z" fill="#211D40"/>
</svg>
